<svg xmlns="http://www.w3.org/2000/svg" viewBox="0 0 121.74 54.14"><title>Asset 2</title><g id="Layer_2" data-name="Layer 2"><g id="HEADER"><polygon points="74.38 38.41 74.38 51.08 90.54 51.08 90.54 54.06 71.53 54.06 71.53 21.41 73.11 21.41 90.54 21.41 90.54 24.38 74.38 24.38 74.38 35.53 90.54 35.53 90.54 38.41 74.38 38.41" fill="#fff" fill-rule="evenodd"/><path d="M17.52,51.3h0l1.05,0,.53,0,.52-.09.52-.13.49-.13.48-.18.48-.18.48-.21.48-.27.87-.56.88-.66.83-.74.48-.53.48-.52.44-.57.39-.57.35-.56.35-.62.26-.61.31-.65.21-.66.22-.65.18-.7.13-.7.13-.75,0-.74.09-.74V36.92l-.09-.74,0-.74-.13-.7L28.8,34l-.18-.65-.17-.66-.22-.65L28,31.46l-.31-.61-.3-.61L27,29.67l-.4-.52-.39-.53-.44-.52-.48-.48-.92-.83-.91-.7-.92-.61-.48-.27L21.59,25l-.48-.17-.53-.18-.48-.17-.52-.13-.48-.09-.53-.09h-.52l-.53,0-.52,0h-.53l-.52.09-.52.09-.49.13-.52.17-.48.18-.48.17-.48.26-.48.27-.48.26-.48.35-.92.7-.88.83-.48.48-.43.52-.4.53L8,29.67l-.35.57-.31.61-.3.61-.26.62-.22.65-.18.66L6.25,34l-.13.7-.13.7,0,.74-.09.74v1.54l.09.74,0,.74.13.7.13.7.17.7.18.65.22.66.26.61.3.61.31.57.35.57.39.57.4.52.43.48.48.53.88.83.92.69.48.31.43.31.48.26.49.22.52.22.48.17.48.13.53.13.52.09.52.09.53,0Zm0-30.06h0l.7,0,.7,0,.7.08.66.09.65.17.66.18.61.22.65.22.62.3.56.31.62.3.56.4.57.39.53.48.56.44.53.52.74.83.7.88.66.87.56,1,.53,1L31,31l.39,1,.35,1.13L32,34.3l.18,1.14.08,1.14.05,1.13v.87l-.09.92-.09.88-.13.83-.17.83-.22.83-.26.79-.27.78-.35.74-.35.75-.39.7-.48.7-.48.69-.52.66-.53.65L27.4,50l-.53.52-.56.48-.53.44-.57.39-.56.4-.62.35-.61.3-.61.26-.61.27-.61.22-.66.17-.65.13-.66.13-.7.09-.7,0h-1.4l-.7,0L15.47,54l-.7-.13-.66-.13-.65-.17-.61-.22-.62-.27-.61-.26-.61-.3-.61-.35-.57-.4-.57-.39L8.74,51l-.57-.48L7.65,50l-.75-.79-.69-.87-.66-.88-.57-1-.52-1-.44-1-.39-1.09-.35-1.14-.22-1.09L2.88,40l-.13-1.13,0-1.14,0-1.18.09-1.18.22-1.13.22-1.1L3.63,32,4,30.94l.44-1,.56-1,.4-.7.43-.66L6.29,27l.48-.57.48-.56.48-.53.53-.48.57-.48L9.39,24l.57-.44.61-.35.62-.35.65-.31.66-.26.7-.26.69-.22.88-.22.92-.17.92-.09Z" fill="#fff" fill-rule="evenodd"/><polygon points="65.64 21.45 51.35 53.97 38.37 21.37 41.51 20.32 51.48 46.49 62.84 20.28 65.64 21.45" fill="#fff" fill-rule="evenodd"/><path d="M99.76,24.34V36.49h5.95l.61-.05.57-.08.57-.13.52-.18.52-.26.48-.31.49-.35.43-.43.4-.44.35-.48.3-.53.22-.52.22-.52.13-.57,0-.61,0-.62,0-.61,0-.61-.13-.61-.18-.53-.26-.52-.26-.52-.35-.49-.39-.43-.44-.4-.44-.34-.52-.31-.48-.26-.57-.18-.57-.13-.61-.09-.61,0Zm12.37,12.45h0l-.22.22-.65.57-.75.52-.78.44-.88.35,12.89,12.85-2.27,2.4L104.92,39.5H99.76V54.1H96.57V21.33h9.09l1,0,.88.13.87.17.83.31.79.39.74.44.7.57.7.61.61.7.53.7.48.74.35.79.3.83.22.87.13.88,0,.91,0,.92-.13.88-.22.83-.3.83-.35.74-.44.7-.57.74Z" fill="#fff" fill-rule="evenodd"/><polygon points="34.48 32.64 31.64 32.64 31.64 9.53 17.44 32.34 16.3 30.59 2.84 9.83 2.84 32.64 0 32.64 0 0.66 2.62 4.41 17.35 27.14 34.48 0 34.48 32.64" fill="#fff" fill-rule="evenodd"/><path d="M47.59,15.56h8L51.48,7ZM51.3.17l15,31.16-2.62,1.31L56.9,18.48H46.41L40.16,32.6l-2.62-1.18Z" fill="#fff" fill-rule="evenodd"/><polygon points="72.89 21.02 72.89 32.6 69.66 32.6 69.66 0.79 72.89 0.83 72.89 16.12 86.39 0 88.8 2.01 79.53 13.06 95.22 31.59 92.95 33.56 77.56 15.43 72.89 21.02" fill="#fff" fill-rule="evenodd"/><polygon points="101.21 17 101.21 29.71 117.33 29.71 117.33 32.64 98.37 32.64 98.37 0 99.94 0 117.33 0 117.33 2.97 101.21 2.97 101.21 14.11 117.38 14.11 117.38 17 101.21 17" fill="#fff" fill-rule="evenodd"/></g></g></svg>